<svg xmlns="http://www.w3.org/2000/svg" xmlns:xlink="http://www.w3.org/1999/xlink" width="512" zoomAndPan="magnify" viewBox="0 0 384 383.999986" height="512" preserveAspectRatio="xMidYMid meet" version="1.0"><defs><g/></defs><rect x="-38.4" width="460.8" fill="#ffffff" y="-38.399999" height="460.799983" fill-opacity="1"/><rect x="-38.4" width="460.8" fill="#000000" y="-38.399999" height="460.799983" fill-opacity="1"/><g fill="#ffffff" fill-opacity="1"><g transform="translate(73.788239, 274.057104)"><g><path d="M 192.078125 15.046875 L 169.34375 -7.6875 C 153.125 1.488281 135.625 6.078125 116.84375 6.078125 C 87.175781 6.078125 61.882812 -4.378906 40.96875 -25.296875 C 20.0625 -46.203125 9.609375 -71.488281 9.609375 -101.15625 C 9.609375 -130.820312 20.0625 -156.113281 40.96875 -177.03125 C 61.882812 -197.945312 87.175781 -208.40625 116.84375 -208.40625 C 146.507812 -208.40625 171.800781 -197.945312 192.71875 -177.03125 C 213.632812 -156.113281 224.09375 -130.820312 224.09375 -101.15625 C 224.09375 -79.8125 218.113281 -59.960938 206.15625 -41.609375 L 227.609375 -20.484375 Z M 116.84375 -38.734375 C 123.457031 -38.734375 129.644531 -39.691406 135.40625 -41.609375 L 116.53125 -60.5 L 151.734375 -96.03125 L 173.1875 -74.59375 C 177.238281 -82.695312 179.265625 -91.550781 179.265625 -101.15625 C 179.265625 -118.445312 173.179688 -133.175781 161.015625 -145.34375 C 148.859375 -157.5 134.132812 -163.578125 116.84375 -163.578125 C 99.5625 -163.578125 84.835938 -157.5 72.671875 -145.34375 C 60.503906 -133.175781 54.421875 -118.445312 54.421875 -101.15625 C 54.421875 -83.875 60.503906 -69.148438 72.671875 -56.984375 C 85.265625 -44.816406 99.988281 -38.734375 116.84375 -38.734375 Z M 116.84375 -38.734375 "/></g></g></g><g fill="#ffffff" fill-opacity="1"><g transform="translate(18.452961, 319.714105)"><g><path d="M 11.6875 -13.234375 L 11.6875 -12.15625 C 11.6875 -11.144531 11.582031 -10.269531 11.375 -9.53125 C 11.175781 -8.800781 10.828125 -8.109375 10.328125 -7.453125 C 9.835938 -6.804688 9.171875 -6.109375 8.328125 -5.359375 C 7.304688 -4.503906 6.503906 -3.773438 5.921875 -3.171875 C 5.335938 -2.578125 4.925781 -2 4.6875 -1.4375 C 4.445312 -0.875 4.328125 -0.195312 4.328125 0.59375 C 4.328125 1.875 4.738281 2.859375 5.5625 3.546875 C 6.382812 4.242188 7.582031 4.59375 9.15625 4.59375 C 10.46875 4.59375 11.628906 4.425781 12.640625 4.09375 C 13.648438 3.757812 14.625 3.367188 15.5625 2.921875 L 16.796875 5.71875 C 15.734375 6.28125 14.554688 6.742188 13.265625 7.109375 C 11.972656 7.484375 10.523438 7.671875 8.921875 7.671875 C 6.390625 7.671875 4.429688 7.046875 3.046875 5.796875 C 1.660156 4.546875 0.96875 2.835938 0.96875 0.671875 C 0.96875 -0.523438 1.160156 -1.539062 1.546875 -2.375 C 1.929688 -3.21875 2.472656 -3.992188 3.171875 -4.703125 C 3.878906 -5.410156 4.71875 -6.164062 5.6875 -6.96875 C 6.59375 -7.707031 7.269531 -8.359375 7.71875 -8.921875 C 8.175781 -9.484375 8.484375 -10.039062 8.640625 -10.59375 C 8.796875 -11.15625 8.875 -11.8125 8.875 -12.5625 L 8.875 -13.234375 Z M 12.59375 -19.125 C 12.59375 -18.132812 12.359375 -17.4375 11.890625 -17.03125 C 11.429688 -16.632812 10.84375 -16.4375 10.125 -16.4375 C 9.457031 -16.4375 8.882812 -16.632812 8.40625 -17.03125 C 7.925781 -17.4375 7.6875 -18.132812 7.6875 -19.125 C 7.6875 -20.082031 7.925781 -20.773438 8.40625 -21.203125 C 8.882812 -21.628906 9.457031 -21.84375 10.125 -21.84375 C 10.84375 -21.84375 11.429688 -21.628906 11.890625 -21.203125 C 12.359375 -20.773438 12.59375 -20.082031 12.59375 -19.125 Z M 12.59375 -19.125 "/></g></g></g><g fill="#ffffff" fill-opacity="1"><g transform="translate(39.131197, 319.714105)"><g><path d="M 24 1.875 L 21.15625 -0.953125 C 19.132812 0.191406 16.945312 0.765625 14.59375 0.765625 C 10.894531 0.765625 7.738281 -0.539062 5.125 -3.15625 C 2.507812 -5.769531 1.203125 -8.929688 1.203125 -12.640625 C 1.203125 -16.347656 2.507812 -19.507812 5.125 -22.125 C 7.738281 -24.738281 10.894531 -26.046875 14.59375 -26.046875 C 18.300781 -26.046875 21.460938 -24.738281 24.078125 -22.125 C 26.691406 -19.507812 28 -16.347656 28 -12.640625 C 28 -9.972656 27.253906 -7.492188 25.765625 -5.203125 L 28.4375 -2.5625 Z M 14.59375 -4.84375 C 15.425781 -4.84375 16.203125 -4.960938 16.921875 -5.203125 L 14.5625 -7.5625 L 18.953125 -12 L 21.640625 -9.3125 C 22.148438 -10.332031 22.40625 -11.441406 22.40625 -12.640625 C 22.40625 -14.796875 21.644531 -16.632812 20.125 -18.15625 C 18.601562 -19.675781 16.757812 -20.4375 14.59375 -20.4375 C 12.4375 -20.4375 10.597656 -19.675781 9.078125 -18.15625 C 7.554688 -16.632812 6.796875 -14.796875 6.796875 -12.640625 C 6.796875 -10.484375 7.554688 -8.644531 9.078125 -7.125 C 10.648438 -5.601562 12.488281 -4.84375 14.59375 -4.84375 Z M 14.59375 -4.84375 "/></g></g></g><g fill="#ffffff" fill-opacity="1"><g transform="translate(72.088222, 319.714105)"><g><path d="M 1.203125 -20.6875 L 6.40625 -20.6875 L 6.40625 -10.28125 C 6.40625 -9.882812 6.46875 -9.429688 6.59375 -8.921875 C 6.757812 -8.304688 7 -7.742188 7.3125 -7.234375 C 8.195312 -5.898438 9.453125 -5.234375 11.078125 -5.234375 C 12.867188 -5.234375 14.160156 -5.914062 14.953125 -7.28125 C 15.253906 -7.757812 15.46875 -8.316406 15.59375 -8.953125 C 15.707031 -9.410156 15.765625 -9.863281 15.765625 -10.3125 L 15.765625 -20.6875 L 21.359375 -20.6875 L 21.359375 0 L 15.765625 0 L 15.765625 -2.15625 C 14.453125 -0.71875 12.769531 0 10.71875 0 C 8.082031 0.03125 5.84375 -0.914062 4 -2.84375 C 2.132812 -4.738281 1.203125 -7.082031 1.203125 -9.875 Z M 1.203125 -20.6875 "/></g></g></g><g fill="#ffffff" fill-opacity="1"><g transform="translate(97.965944, 319.714105)"><g><path d="M 11.484375 -30.796875 L 14.40625 -27.875 L 9.796875 -23.28125 L 6.875 -26.203125 Z M 21.234375 -9.40625 C 21.265625 -8.84375 21.265625 -8.507812 21.234375 -8.40625 L 6.203125 -8.4375 C 6.410156 -7.820312 6.796875 -7.238281 7.359375 -6.6875 C 8.398438 -5.695312 9.597656 -5.203125 10.953125 -5.203125 C 12.398438 -5.253906 13.601562 -5.757812 14.5625 -6.71875 L 14.71875 -6.875 L 19.921875 -5.234375 C 18.773438 -3.453125 17.570312 -2.175781 16.3125 -1.40625 C 14.90625 -0.5 13.132812 -0.03125 11 0 C 8.175781 0.03125 5.75 -0.953125 3.71875 -2.953125 C 1.695312 -4.953125 0.671875 -7.378906 0.640625 -10.234375 C 0.609375 -13.066406 1.59375 -15.492188 3.59375 -17.515625 C 5.59375 -19.546875 8.019531 -20.570312 10.875 -20.59375 C 13.707031 -20.625 16.132812 -19.640625 18.15625 -17.640625 C 20.1875 -15.640625 21.210938 -13.210938 21.234375 -10.359375 Z M 10.921875 -15.359375 C 9.503906 -15.359375 8.300781 -14.863281 7.3125 -13.875 C 6.8125 -13.320312 6.453125 -12.765625 6.234375 -12.203125 L 15.640625 -12.203125 C 15.421875 -12.765625 15.046875 -13.335938 14.515625 -13.921875 C 13.503906 -14.878906 12.304688 -15.359375 10.921875 -15.359375 Z M 10.921875 -15.359375 "/></g></g></g><g fill="#ffffff" fill-opacity="1"><g transform="translate(123.163738, 319.714105)"><g/></g></g><g fill="#ffffff" fill-opacity="1"><g transform="translate(136.882674, 319.714105)"><g><path d="M 26.40625 -20.640625 C 29.175781 -20.671875 31.425781 -19.84375 33.15625 -18.15625 C 35.019531 -16.394531 35.953125 -13.929688 35.953125 -10.765625 L 35.953125 0 L 30.765625 0 L 30.765625 -10.40625 C 30.765625 -10.800781 30.695312 -11.253906 30.5625 -11.765625 C 30.375 -12.378906 30.117188 -12.925781 29.796875 -13.40625 C 28.941406 -14.757812 27.691406 -15.4375 26.046875 -15.4375 C 24.285156 -15.4375 23.003906 -14.757812 22.203125 -13.40625 C 21.910156 -12.894531 21.695312 -12.320312 21.5625 -11.6875 C 21.457031 -11.226562 21.40625 -10.769531 21.40625 -10.3125 L 21.40625 0 L 16.15625 0 L 16.15625 -10.40625 C 16.15625 -10.800781 16.085938 -11.253906 15.953125 -11.765625 C 15.796875 -12.378906 15.554688 -12.925781 15.234375 -13.40625 C 14.359375 -14.757812 13.109375 -15.4375 11.484375 -15.4375 C 9.691406 -15.4375 8.394531 -14.757812 7.59375 -13.40625 C 7.300781 -12.894531 7.085938 -12.320312 6.953125 -11.6875 C 6.847656 -11.226562 6.796875 -10.769531 6.796875 -10.3125 L 6.796875 0 L 1.203125 0 L 1.203125 -20.6875 L 6.796875 -20.6875 L 6.796875 -18.515625 C 8.109375 -19.929688 9.789062 -20.640625 11.84375 -20.640625 C 14.851562 -20.691406 17.289062 -19.53125 19.15625 -17.15625 L 20.84375 -18.71875 C 22.414062 -20 24.269531 -20.640625 26.40625 -20.640625 Z M 26.40625 -20.640625 "/></g></g></g><g fill="#ffffff" fill-opacity="1"><g transform="translate(177.358947, 319.714105)"><g><path d="M 21.046875 -9.40625 C 21.066406 -8.84375 21.066406 -8.507812 21.046875 -8.40625 L 6 -8.4375 C 6.207031 -7.820312 6.59375 -7.238281 7.15625 -6.6875 C 8.195312 -5.695312 9.398438 -5.203125 10.765625 -5.203125 C 12.203125 -5.253906 13.398438 -5.757812 14.359375 -6.71875 L 14.515625 -6.875 L 19.71875 -5.234375 C 18.570312 -3.453125 17.375 -2.175781 16.125 -1.40625 C 14.707031 -0.5 12.929688 -0.03125 10.796875 0 C 7.972656 0.03125 5.546875 -0.953125 3.515625 -2.953125 C 1.492188 -4.953125 0.46875 -7.378906 0.4375 -10.234375 C 0.414062 -13.066406 1.40625 -15.492188 3.40625 -17.515625 C 5.40625 -19.546875 7.832031 -20.570312 10.6875 -20.59375 C 13.507812 -20.625 15.929688 -19.640625 17.953125 -17.640625 C 19.984375 -15.640625 21.015625 -13.210938 21.046875 -10.359375 Z M 10.71875 -15.359375 C 9.300781 -15.359375 8.101562 -14.863281 7.125 -13.875 C 6.613281 -13.320312 6.253906 -12.765625 6.046875 -12.203125 L 15.4375 -12.203125 C 15.226562 -12.765625 14.851562 -13.335938 14.3125 -13.921875 C 13.300781 -14.878906 12.101562 -15.359375 10.71875 -15.359375 Z M 10.71875 -15.359375 "/></g></g></g><g fill="#ffffff" fill-opacity="1"><g transform="translate(202.156782, 319.714105)"><g/></g></g><g fill="#ffffff" fill-opacity="1"><g transform="translate(215.875706, 319.714105)"><g><path d="M 11.921875 -20.59375 C 14.742188 -20.625 17.171875 -19.640625 19.203125 -17.640625 C 21.222656 -15.640625 22.25 -13.210938 22.28125 -10.359375 C 22.300781 -7.535156 21.3125 -5.109375 19.3125 -3.078125 C 17.3125 -1.054688 14.890625 -0.03125 12.046875 0 C 9.722656 0 7.972656 -0.734375 6.796875 -2.203125 L 6.796875 7.6875 L 1.203125 7.6875 L 1.203125 -20.5625 L 6.796875 -20.5625 L 6.796875 -18.40625 C 7.890625 -19.8125 9.597656 -20.539062 11.921875 -20.59375 Z M 15.59375 -6.71875 C 16.613281 -7.726562 17.097656 -8.925781 17.046875 -10.3125 C 17.046875 -11.726562 16.550781 -12.929688 15.5625 -13.921875 C 14.550781 -14.878906 13.347656 -15.359375 11.953125 -15.359375 C 10.546875 -15.359375 9.347656 -14.863281 8.359375 -13.875 C 7.367188 -12.832031 6.875 -11.632812 6.875 -10.28125 C 6.925781 -8.84375 7.4375 -7.644531 8.40625 -6.6875 C 9.382812 -5.695312 10.582031 -5.203125 12 -5.203125 C 13.4375 -5.253906 14.632812 -5.757812 15.59375 -6.71875 Z M 15.59375 -6.71875 "/></g></g></g><g fill="#ffffff" fill-opacity="1"><g transform="translate(242.113391, 319.714105)"><g><path d="M 10.6875 -20.59375 C 13.53125 -20.625 15.953125 -19.640625 17.953125 -17.640625 C 19.984375 -15.609375 21 -13.179688 21 -10.359375 C 21.03125 -7.503906 20.046875 -5.078125 18.046875 -3.078125 C 16.046875 -1.054688 13.628906 -0.03125 10.796875 0 C 7.941406 0.03125 5.503906 -0.953125 3.484375 -2.953125 C 1.453125 -4.953125 0.4375 -7.378906 0.4375 -10.234375 C 0.414062 -13.085938 1.40625 -15.515625 3.40625 -17.515625 C 5.40625 -19.546875 7.832031 -20.570312 10.6875 -20.59375 Z M 14.3125 -6.71875 C 15.300781 -7.707031 15.796875 -8.90625 15.796875 -10.3125 C 15.796875 -11.707031 15.289062 -12.910156 14.28125 -13.921875 C 13.269531 -14.878906 12.070312 -15.359375 10.6875 -15.359375 C 9.289062 -15.359375 8.101562 -14.863281 7.125 -13.875 C 6.132812 -12.832031 5.640625 -11.632812 5.640625 -10.28125 C 5.640625 -8.894531 6.144531 -7.695312 7.15625 -6.6875 C 8.144531 -5.695312 9.347656 -5.203125 10.765625 -5.203125 C 12.203125 -5.253906 13.382812 -5.757812 14.3125 -6.71875 Z M 14.3125 -6.71875 "/></g></g></g><g fill="#ffffff" fill-opacity="1"><g transform="translate(266.87124, 319.714105)"><g><path d="M 11.4375 -20.515625 C 14.375 -20.753906 16.800781 -19.992188 18.71875 -18.234375 C 20.769531 -16.347656 21.796875 -13.695312 21.796875 -10.28125 L 21.796875 0 L 16.59375 0 L 16.59375 -10.15625 L 16.5625 -10.15625 L 16.5625 -10.234375 C 16.5625 -11.648438 16.066406 -12.851562 15.078125 -13.84375 C 14.085938 -14.820312 12.890625 -15.3125 11.484375 -15.3125 C 10.035156 -15.257812 8.832031 -14.753906 7.875 -13.796875 C 6.863281 -12.785156 6.382812 -11.585938 6.4375 -10.203125 L 6.4375 -10.15625 L 6.40625 -10.15625 L 6.40625 0 L 0.796875 0 L 0.796875 -20.6875 L 6.40625 -20.6875 L 6.40625 -18 C 7.65625 -19.488281 9.332031 -20.328125 11.4375 -20.515625 Z M 11.4375 -20.515625 "/></g></g></g><g fill="#ffffff" fill-opacity="1"><g transform="translate(292.78897, 319.714105)"><g><path d="M 16.5625 -20.640625 L 21.796875 -20.640625 L 21.796875 -0.046875 C 21.796875 2.785156 20.796875 5.203125 18.796875 7.203125 C 16.828125 9.203125 14.425781 10.210938 11.59375 10.234375 C 8.957031 10.265625 6.65625 9.398438 4.6875 7.640625 C 2.738281 5.929688 1.613281 3.785156 1.3125 1.203125 L 6.59375 1.203125 C 6.78125 2.054688 7.234375 2.84375 7.953125 3.5625 C 8.941406 4.550781 10.144531 5.046875 11.5625 5.046875 C 12.976562 5.046875 14.164062 4.535156 15.125 3.515625 C 16.101562 2.535156 16.59375 1.347656 16.59375 -0.046875 L 16.5625 -2.078125 C 15.195312 -0.722656 13.539062 -0.046875 11.59375 -0.046875 C 8.738281 -0.015625 6.300781 -1 4.28125 -3 C 2.25 -5 1.234375 -7.425781 1.234375 -10.28125 C 1.210938 -13.132812 2.203125 -15.5625 4.203125 -17.5625 C 6.203125 -19.582031 8.628906 -20.609375 11.484375 -20.640625 C 13.742188 -20.640625 15.4375 -19.929688 16.5625 -18.515625 Z M 16.5625 -10.921875 C 16.457031 -12.097656 15.960938 -13.109375 15.078125 -13.953125 C 14.066406 -14.921875 12.867188 -15.40625 11.484375 -15.40625 C 10.097656 -15.40625 8.910156 -14.910156 7.921875 -13.921875 C 6.929688 -12.878906 6.4375 -11.675781 6.4375 -10.3125 C 6.4375 -8.925781 6.941406 -7.726562 7.953125 -6.71875 C 8.941406 -5.726562 10.144531 -5.234375 11.5625 -5.234375 C 13 -5.285156 14.1875 -5.796875 15.125 -6.765625 C 15.945312 -7.585938 16.425781 -8.570312 16.5625 -9.71875 Z M 16.5625 -10.921875 "/></g></g></g><g fill="#ffffff" fill-opacity="1"><g transform="translate(319.106625, 319.714105)"><g><path d="M 10.6875 -20.59375 C 13.53125 -20.625 15.953125 -19.640625 17.953125 -17.640625 C 19.984375 -15.609375 21 -13.179688 21 -10.359375 C 21.03125 -7.503906 20.046875 -5.078125 18.046875 -3.078125 C 16.046875 -1.054688 13.628906 -0.03125 10.796875 0 C 7.941406 0.03125 5.503906 -0.953125 3.484375 -2.953125 C 1.453125 -4.953125 0.4375 -7.378906 0.4375 -10.234375 C 0.414062 -13.085938 1.40625 -15.515625 3.40625 -17.515625 C 5.40625 -19.546875 7.832031 -20.570312 10.6875 -20.59375 Z M 14.3125 -6.71875 C 15.300781 -7.707031 15.796875 -8.90625 15.796875 -10.3125 C 15.796875 -11.707031 15.289062 -12.910156 14.28125 -13.921875 C 13.269531 -14.878906 12.070312 -15.359375 10.6875 -15.359375 C 9.289062 -15.359375 8.101562 -14.863281 7.125 -13.875 C 6.132812 -12.832031 5.640625 -11.632812 5.640625 -10.28125 C 5.640625 -8.894531 6.144531 -7.695312 7.15625 -6.6875 C 8.144531 -5.695312 9.347656 -5.203125 10.765625 -5.203125 C 12.203125 -5.253906 13.382812 -5.757812 14.3125 -6.71875 Z M 14.3125 -6.71875 "/></g></g></g><g fill="#ffffff" fill-opacity="1"><g transform="translate(343.864474, 319.714105)"><g><path d="M 7.921875 0 L 7.921875 -6.234375 L 14.15625 -6.234375 L 14.15625 0 Z M 20.484375 -21.234375 C 20.484375 -20.171875 20.226562 -19.050781 19.71875 -17.875 C 19.207031 -16.707031 18.53125 -15.695312 17.6875 -14.84375 L 14.15625 -11.3125 L 14.15625 -9.3125 L 7.921875 -9.3125 L 7.921875 -12.84375 L 12.234375 -16.875 C 14.023438 -18.6875 14.921875 -20.140625 14.921875 -21.234375 C 14.921875 -22.203125 14.546875 -22.988281 13.796875 -23.59375 C 13.054688 -24.207031 12.070312 -24.515625 10.84375 -24.515625 C 9.664062 -24.515625 8.691406 -24.179688 7.921875 -23.515625 C 7.171875 -22.878906 6.796875 -22.117188 6.796875 -21.234375 L 1.203125 -21.234375 C 1.203125 -21.953125 1.453125 -22.941406 1.953125 -24.203125 C 2.441406 -25.347656 3.140625 -26.375 4.046875 -27.28125 C 4.867188 -28.101562 5.878906 -28.796875 7.078125 -29.359375 C 8.359375 -29.867188 9.613281 -30.125 10.84375 -30.125 C 12.09375 -30.125 13.34375 -29.867188 14.59375 -29.359375 C 15.800781 -28.828125 16.832031 -28.132812 17.6875 -27.28125 C 18.5625 -26.394531 19.238281 -25.367188 19.71875 -24.203125 C 20.226562 -23.023438 20.484375 -22.035156 20.484375 -21.234375 Z M 20.484375 -21.234375 "/></g></g></g></svg>