<svg xmlns="http://www.w3.org/2000/svg" xmlns:xlink="http://www.w3.org/1999/xlink" width="192" zoomAndPan="magnify" viewBox="0 0 144 143.999998" height="192" preserveAspectRatio="xMidYMid meet" version="1.0"><defs><g/><clipPath id="088e8362ff"><rect x="0" width="117" y="0" height="137"/></clipPath><clipPath id="8564df68d4"><rect x="0" width="133" y="0" height="21"/></clipPath></defs><rect x="-14.4" width="172.8" fill="#ffffff" y="-14.4" height="172.799997" fill-opacity="1"/><rect x="-14.4" width="172.8" fill="#000000" y="-14.4" height="172.799997" fill-opacity="1"/><g transform="matrix(1, 0, 0, 1, 27, -0.000000000000008916)"><g clip-path="url(#088e8362ff)"><g fill="#ffffff" fill-opacity="1"><g transform="translate(0.670589, 102.771421)"><g><path d="M 72.03125 5.640625 L 63.5 -2.875 C 57.414062 0.5625 50.851562 2.28125 43.8125 2.28125 C 32.6875 2.28125 23.203125 -1.640625 15.359375 -9.484375 C 7.515625 -17.328125 3.59375 -26.8125 3.59375 -37.9375 C 3.59375 -49.0625 7.515625 -58.546875 15.359375 -66.390625 C 23.203125 -74.234375 32.6875 -78.15625 43.8125 -78.15625 C 54.9375 -78.15625 64.421875 -74.234375 72.265625 -66.390625 C 80.109375 -58.546875 84.03125 -49.0625 84.03125 -37.9375 C 84.03125 -29.9375 81.789062 -22.492188 77.3125 -15.609375 L 85.359375 -7.6875 Z M 43.8125 -14.53125 C 46.289062 -14.53125 48.613281 -14.890625 50.78125 -15.609375 L 43.703125 -22.6875 L 56.90625 -36.015625 L 64.953125 -27.96875 C 66.460938 -31.007812 67.21875 -34.332031 67.21875 -37.9375 C 67.21875 -44.414062 64.941406 -49.9375 60.390625 -54.5 C 55.828125 -59.0625 50.300781 -61.34375 43.8125 -61.34375 C 37.332031 -61.34375 31.8125 -59.0625 27.25 -54.5 C 22.6875 -49.9375 20.40625 -44.414062 20.40625 -37.9375 C 20.40625 -31.457031 22.6875 -25.9375 27.25 -21.375 C 31.96875 -16.8125 37.488281 -14.53125 43.8125 -14.53125 Z M 43.8125 -14.53125 "/></g></g></g></g></g><g transform="matrix(1, 0, 0, 1, 6, 104)"><g clip-path="url(#8564df68d4)"><g fill="#ffffff" fill-opacity="1"><g transform="translate(0.919859, 15.892798)"><g><path d="M 4.390625 -4.96875 L 4.390625 -4.5625 C 4.390625 -4.1875 4.347656 -3.859375 4.265625 -3.578125 C 4.191406 -3.304688 4.0625 -3.046875 3.875 -2.796875 C 3.695312 -2.554688 3.445312 -2.296875 3.125 -2.015625 C 2.738281 -1.691406 2.4375 -1.414062 2.21875 -1.1875 C 2 -0.96875 1.84375 -0.753906 1.75 -0.546875 C 1.664062 -0.335938 1.625 -0.0820312 1.625 0.21875 C 1.625 0.695312 1.773438 1.066406 2.078125 1.328125 C 2.390625 1.585938 2.84375 1.71875 3.4375 1.71875 C 3.925781 1.71875 4.359375 1.65625 4.734375 1.53125 C 5.117188 1.40625 5.488281 1.257812 5.84375 1.09375 L 6.296875 2.140625 C 5.898438 2.347656 5.457031 2.519531 4.96875 2.65625 C 4.488281 2.800781 3.945312 2.875 3.34375 2.875 C 2.394531 2.875 1.660156 2.640625 1.140625 2.171875 C 0.617188 1.703125 0.359375 1.0625 0.359375 0.25 C 0.359375 -0.195312 0.429688 -0.578125 0.578125 -0.890625 C 0.722656 -1.210938 0.925781 -1.503906 1.1875 -1.765625 C 1.457031 -2.035156 1.773438 -2.316406 2.140625 -2.609375 C 2.472656 -2.890625 2.722656 -3.132812 2.890625 -3.34375 C 3.066406 -3.5625 3.179688 -3.773438 3.234375 -3.984375 C 3.296875 -4.191406 3.328125 -4.4375 3.328125 -4.71875 L 3.328125 -4.96875 Z M 4.734375 -7.171875 C 4.734375 -6.804688 4.644531 -6.546875 4.46875 -6.390625 C 4.289062 -6.242188 4.066406 -6.171875 3.796875 -6.171875 C 3.546875 -6.171875 3.332031 -6.242188 3.15625 -6.390625 C 2.976562 -6.546875 2.890625 -6.804688 2.890625 -7.171875 C 2.890625 -7.535156 2.976562 -7.796875 3.15625 -7.953125 C 3.332031 -8.109375 3.546875 -8.1875 3.796875 -8.1875 C 4.066406 -8.1875 4.289062 -8.109375 4.46875 -7.953125 C 4.644531 -7.796875 4.734375 -7.535156 4.734375 -7.171875 Z M 4.734375 -7.171875 "/></g></g></g><g fill="#ffffff" fill-opacity="1"><g transform="translate(8.674198, 15.892798)"><g><path d="M 9 0.703125 L 7.9375 -0.359375 C 7.175781 0.0664062 6.351562 0.28125 5.46875 0.28125 C 4.082031 0.28125 2.898438 -0.207031 1.921875 -1.1875 C 0.941406 -2.164062 0.453125 -3.347656 0.453125 -4.734375 C 0.453125 -6.128906 0.941406 -7.316406 1.921875 -8.296875 C 2.898438 -9.273438 4.082031 -9.765625 5.46875 -9.765625 C 6.863281 -9.765625 8.050781 -9.273438 9.03125 -8.296875 C 10.007812 -7.316406 10.5 -6.128906 10.5 -4.734375 C 10.5 -3.734375 10.21875 -2.804688 9.65625 -1.953125 L 10.671875 -0.953125 Z M 5.46875 -1.8125 C 5.78125 -1.8125 6.070312 -1.859375 6.34375 -1.953125 L 5.453125 -2.828125 L 7.109375 -4.5 L 8.109375 -3.5 C 8.304688 -3.875 8.40625 -4.285156 8.40625 -4.734375 C 8.40625 -5.546875 8.117188 -6.238281 7.546875 -6.8125 C 6.972656 -7.382812 6.28125 -7.671875 5.46875 -7.671875 C 4.664062 -7.671875 3.976562 -7.382812 3.40625 -6.8125 C 2.832031 -6.238281 2.546875 -5.546875 2.546875 -4.734375 C 2.546875 -3.929688 2.832031 -3.242188 3.40625 -2.671875 C 4 -2.097656 4.6875 -1.8125 5.46875 -1.8125 Z M 5.46875 -1.8125 "/></g></g></g><g fill="#ffffff" fill-opacity="1"><g transform="translate(21.033082, 15.892798)"><g><path d="M 0.453125 -7.75 L 2.40625 -7.75 L 2.40625 -3.859375 C 2.40625 -3.703125 2.425781 -3.53125 2.46875 -3.34375 C 2.53125 -3.113281 2.625 -2.90625 2.75 -2.71875 C 3.070312 -2.21875 3.539062 -1.96875 4.15625 -1.96875 C 4.820312 -1.96875 5.304688 -2.222656 5.609375 -2.734375 C 5.722656 -2.910156 5.800781 -3.117188 5.84375 -3.359375 C 5.882812 -3.523438 5.90625 -3.695312 5.90625 -3.875 L 5.90625 -7.75 L 8.015625 -7.75 L 8.015625 0 L 5.90625 0 L 5.90625 -0.8125 C 5.414062 -0.269531 4.785156 0 4.015625 0 C 3.023438 0.0078125 2.1875 -0.34375 1.5 -1.0625 C 0.800781 -1.769531 0.453125 -2.648438 0.453125 -3.703125 Z M 0.453125 -7.75 "/></g></g></g><g fill="#ffffff" fill-opacity="1"><g transform="translate(30.737228, 15.892798)"><g><path d="M 4.3125 -11.546875 L 5.40625 -10.453125 L 3.671875 -8.734375 L 2.578125 -9.828125 Z M 7.96875 -3.53125 C 7.976562 -3.3125 7.976562 -3.1875 7.96875 -3.15625 L 2.328125 -3.171875 C 2.398438 -2.929688 2.546875 -2.707031 2.765625 -2.5 C 3.148438 -2.132812 3.597656 -1.953125 4.109375 -1.953125 C 4.648438 -1.972656 5.097656 -2.160156 5.453125 -2.515625 L 5.515625 -2.578125 L 7.46875 -1.96875 C 7.039062 -1.289062 6.59375 -0.8125 6.125 -0.53125 C 5.59375 -0.1875 4.925781 -0.0078125 4.125 0 C 3.0625 0.0078125 2.148438 -0.359375 1.390625 -1.109375 C 0.628906 -1.859375 0.242188 -2.769531 0.234375 -3.84375 C 0.222656 -4.90625 0.59375 -5.8125 1.34375 -6.5625 C 2.09375 -7.320312 3.003906 -7.707031 4.078125 -7.71875 C 5.140625 -7.726562 6.050781 -7.359375 6.8125 -6.609375 C 7.570312 -5.859375 7.957031 -4.953125 7.96875 -3.890625 Z M 4.09375 -5.765625 C 3.5625 -5.765625 3.113281 -5.578125 2.75 -5.203125 C 2.550781 -4.992188 2.414062 -4.785156 2.34375 -4.578125 L 5.859375 -4.578125 C 5.785156 -4.785156 5.644531 -5 5.4375 -5.21875 C 5.0625 -5.582031 4.613281 -5.765625 4.09375 -5.765625 Z M 4.09375 -5.765625 "/></g></g></g><g fill="#ffffff" fill-opacity="1"><g transform="translate(40.186401, 15.892798)"><g/></g></g><g fill="#ffffff" fill-opacity="1"><g transform="translate(45.331002, 15.892798)"><g><path d="M 9.90625 -7.734375 C 10.9375 -7.742188 11.78125 -7.4375 12.4375 -6.8125 C 13.132812 -6.144531 13.484375 -5.21875 13.484375 -4.03125 L 13.484375 0 L 11.53125 0 L 11.53125 -3.90625 C 11.53125 -4.050781 11.503906 -4.21875 11.453125 -4.40625 C 11.390625 -4.632812 11.296875 -4.84375 11.171875 -5.03125 C 10.847656 -5.539062 10.378906 -5.796875 9.765625 -5.796875 C 9.109375 -5.796875 8.628906 -5.539062 8.328125 -5.03125 C 8.210938 -4.832031 8.128906 -4.613281 8.078125 -4.375 C 8.046875 -4.207031 8.03125 -4.039062 8.03125 -3.875 L 8.03125 0 L 6.0625 0 L 6.0625 -3.90625 C 6.0625 -4.050781 6.035156 -4.21875 5.984375 -4.40625 C 5.921875 -4.632812 5.832031 -4.84375 5.71875 -5.03125 C 5.382812 -5.539062 4.914062 -5.796875 4.3125 -5.796875 C 3.632812 -5.796875 3.144531 -5.539062 2.84375 -5.03125 C 2.738281 -4.832031 2.660156 -4.613281 2.609375 -4.375 C 2.566406 -4.207031 2.546875 -4.039062 2.546875 -3.875 L 2.546875 0 L 0.453125 0 L 0.453125 -7.75 L 2.546875 -7.75 L 2.546875 -6.9375 C 3.035156 -7.46875 3.664062 -7.734375 4.4375 -7.734375 C 5.570312 -7.753906 6.488281 -7.320312 7.1875 -6.4375 L 7.8125 -7.015625 C 8.40625 -7.492188 9.101562 -7.734375 9.90625 -7.734375 Z M 9.90625 -7.734375 "/></g></g></g><g fill="#ffffff" fill-opacity="1"><g transform="translate(60.509605, 15.892798)"><g><path d="M 7.890625 -3.53125 C 7.898438 -3.3125 7.898438 -3.1875 7.890625 -3.15625 L 2.25 -3.171875 C 2.332031 -2.929688 2.476562 -2.707031 2.6875 -2.5 C 3.070312 -2.132812 3.519531 -1.953125 4.03125 -1.953125 C 4.570312 -1.972656 5.023438 -2.160156 5.390625 -2.515625 L 5.4375 -2.578125 L 7.390625 -1.96875 C 6.960938 -1.289062 6.515625 -0.8125 6.046875 -0.53125 C 5.515625 -0.1875 4.847656 -0.0078125 4.046875 0 C 2.984375 0.0078125 2.070312 -0.359375 1.3125 -1.109375 C 0.5625 -1.859375 0.179688 -2.769531 0.171875 -3.84375 C 0.160156 -4.90625 0.53125 -5.8125 1.28125 -6.5625 C 2.03125 -7.320312 2.9375 -7.707031 4 -7.71875 C 5.0625 -7.726562 5.972656 -7.359375 6.734375 -6.609375 C 7.492188 -5.859375 7.878906 -4.953125 7.890625 -3.890625 Z M 4.015625 -5.765625 C 3.484375 -5.765625 3.035156 -5.578125 2.671875 -5.203125 C 2.484375 -4.992188 2.347656 -4.785156 2.265625 -4.578125 L 5.796875 -4.578125 C 5.710938 -4.785156 5.570312 -5 5.375 -5.21875 C 4.988281 -5.582031 4.535156 -5.765625 4.015625 -5.765625 Z M 4.015625 -5.765625 "/></g></g></g><g fill="#ffffff" fill-opacity="1"><g transform="translate(69.808793, 15.892798)"><g/></g></g><g fill="#ffffff" fill-opacity="1"><g transform="translate(74.95339, 15.892798)"><g><path d="M 4.46875 -7.71875 C 5.53125 -7.726562 6.441406 -7.359375 7.203125 -6.609375 C 7.960938 -5.859375 8.347656 -4.953125 8.359375 -3.890625 C 8.367188 -2.828125 8 -1.914062 7.25 -1.15625 C 6.5 -0.394531 5.585938 -0.0078125 4.515625 0 C 3.640625 0 2.984375 -0.273438 2.546875 -0.828125 L 2.546875 2.875 L 0.453125 2.875 L 0.453125 -7.703125 L 2.546875 -7.703125 L 2.546875 -6.90625 C 2.960938 -7.425781 3.601562 -7.695312 4.46875 -7.71875 Z M 5.84375 -2.515625 C 6.226562 -2.898438 6.410156 -3.351562 6.390625 -3.875 C 6.390625 -4.40625 6.203125 -4.851562 5.828125 -5.21875 C 5.453125 -5.582031 5.003906 -5.765625 4.484375 -5.765625 C 3.953125 -5.765625 3.503906 -5.578125 3.140625 -5.203125 C 2.765625 -4.816406 2.578125 -4.367188 2.578125 -3.859375 C 2.597656 -3.316406 2.789062 -2.863281 3.15625 -2.5 C 3.519531 -2.132812 3.96875 -1.953125 4.5 -1.953125 C 5.039062 -1.972656 5.488281 -2.160156 5.84375 -2.515625 Z M 5.84375 -2.515625 "/></g></g></g><g fill="#ffffff" fill-opacity="1"><g transform="translate(84.792522, 15.892798)"><g><path d="M 4 -7.71875 C 5.070312 -7.726562 5.984375 -7.359375 6.734375 -6.609375 C 7.492188 -5.847656 7.875 -4.941406 7.875 -3.890625 C 7.882812 -2.816406 7.515625 -1.90625 6.765625 -1.15625 C 6.015625 -0.394531 5.109375 -0.0078125 4.046875 0 C 2.972656 0.0078125 2.0625 -0.359375 1.3125 -1.109375 C 0.550781 -1.859375 0.171875 -2.769531 0.171875 -3.84375 C 0.160156 -4.90625 0.53125 -5.8125 1.28125 -6.5625 C 2.03125 -7.320312 2.9375 -7.707031 4 -7.71875 Z M 5.375 -2.515625 C 5.738281 -2.890625 5.921875 -3.34375 5.921875 -3.875 C 5.921875 -4.394531 5.734375 -4.84375 5.359375 -5.21875 C 4.972656 -5.582031 4.519531 -5.765625 4 -5.765625 C 3.476562 -5.765625 3.035156 -5.578125 2.671875 -5.203125 C 2.296875 -4.816406 2.109375 -4.367188 2.109375 -3.859375 C 2.109375 -3.335938 2.300781 -2.882812 2.6875 -2.5 C 3.050781 -2.132812 3.5 -1.953125 4.03125 -1.953125 C 4.570312 -1.972656 5.019531 -2.160156 5.375 -2.515625 Z M 5.375 -2.515625 "/></g></g></g><g fill="#ffffff" fill-opacity="1"><g transform="translate(94.076716, 15.892798)"><g><path d="M 4.296875 -7.6875 C 5.390625 -7.78125 6.296875 -7.5 7.015625 -6.84375 C 7.785156 -6.132812 8.171875 -5.140625 8.171875 -3.859375 L 8.171875 0 L 6.21875 0 L 6.21875 -3.8125 L 6.203125 -3.8125 L 6.203125 -3.84375 C 6.203125 -4.375 6.019531 -4.820312 5.65625 -5.1875 C 5.28125 -5.5625 4.832031 -5.75 4.3125 -5.75 C 3.769531 -5.726562 3.316406 -5.535156 2.953125 -5.171875 C 2.578125 -4.796875 2.398438 -4.347656 2.421875 -3.828125 L 2.421875 -3.8125 L 2.40625 -3.8125 L 2.40625 0 L 0.296875 0 L 0.296875 -7.75 L 2.40625 -7.75 L 2.40625 -6.75 C 2.875 -7.3125 3.503906 -7.625 4.296875 -7.6875 Z M 4.296875 -7.6875 "/></g></g></g><g fill="#ffffff" fill-opacity="1"><g transform="translate(103.795864, 15.892798)"><g><path d="M 6.203125 -7.734375 L 8.171875 -7.734375 L 8.171875 -0.015625 C 8.171875 1.046875 7.796875 1.953125 7.046875 2.703125 C 6.304688 3.453125 5.40625 3.832031 4.34375 3.84375 C 3.351562 3.851562 2.488281 3.523438 1.75 2.859375 C 1.019531 2.222656 0.601562 1.421875 0.5 0.453125 L 2.46875 0.453125 C 2.539062 0.773438 2.710938 1.066406 2.984375 1.328125 C 3.359375 1.703125 3.804688 1.890625 4.328125 1.890625 C 4.859375 1.890625 5.304688 1.695312 5.671875 1.3125 C 6.035156 0.945312 6.21875 0.503906 6.21875 -0.015625 L 6.203125 -0.78125 C 5.691406 -0.269531 5.070312 -0.015625 4.34375 -0.015625 C 3.28125 -0.00390625 2.367188 -0.375 1.609375 -1.125 C 0.847656 -1.875 0.46875 -2.785156 0.46875 -3.859375 C 0.457031 -4.921875 0.828125 -5.828125 1.578125 -6.578125 C 2.328125 -7.335938 3.238281 -7.722656 4.3125 -7.734375 C 5.15625 -7.734375 5.785156 -7.46875 6.203125 -6.9375 Z M 6.203125 -4.09375 C 6.171875 -4.53125 5.988281 -4.910156 5.65625 -5.234375 C 5.269531 -5.597656 4.820312 -5.78125 4.3125 -5.78125 C 3.789062 -5.78125 3.34375 -5.59375 2.96875 -5.21875 C 2.601562 -4.832031 2.421875 -4.382812 2.421875 -3.875 C 2.421875 -3.351562 2.609375 -2.898438 2.984375 -2.515625 C 3.359375 -2.148438 3.804688 -1.96875 4.328125 -1.96875 C 4.867188 -1.988281 5.316406 -2.175781 5.671875 -2.53125 C 5.984375 -2.84375 6.160156 -3.210938 6.203125 -3.640625 Z M 6.203125 -4.09375 "/></g></g></g><g fill="#ffffff" fill-opacity="1"><g transform="translate(113.664985, 15.892798)"><g><path d="M 4 -7.71875 C 5.070312 -7.726562 5.984375 -7.359375 6.734375 -6.609375 C 7.492188 -5.847656 7.875 -4.941406 7.875 -3.890625 C 7.882812 -2.816406 7.515625 -1.90625 6.765625 -1.15625 C 6.015625 -0.394531 5.109375 -0.0078125 4.046875 0 C 2.972656 0.0078125 2.0625 -0.359375 1.3125 -1.109375 C 0.550781 -1.859375 0.171875 -2.769531 0.171875 -3.84375 C 0.160156 -4.90625 0.53125 -5.8125 1.28125 -6.5625 C 2.03125 -7.320312 2.9375 -7.707031 4 -7.71875 Z M 5.375 -2.515625 C 5.738281 -2.890625 5.921875 -3.34375 5.921875 -3.875 C 5.921875 -4.394531 5.734375 -4.84375 5.359375 -5.21875 C 4.972656 -5.582031 4.519531 -5.765625 4 -5.765625 C 3.476562 -5.765625 3.035156 -5.578125 2.671875 -5.203125 C 2.296875 -4.816406 2.109375 -4.367188 2.109375 -3.859375 C 2.109375 -3.335938 2.300781 -2.882812 2.6875 -2.5 C 3.050781 -2.132812 3.5 -1.953125 4.03125 -1.953125 C 4.570312 -1.972656 5.019531 -2.160156 5.375 -2.515625 Z M 5.375 -2.515625 "/></g></g></g><g fill="#ffffff" fill-opacity="1"><g transform="translate(122.949179, 15.892798)"><g><path d="M 2.96875 0 L 2.96875 -2.34375 L 5.3125 -2.34375 L 5.3125 0 Z M 7.6875 -7.96875 C 7.6875 -7.5625 7.585938 -7.140625 7.390625 -6.703125 C 7.203125 -6.265625 6.945312 -5.882812 6.625 -5.5625 L 5.3125 -4.25 L 5.3125 -3.5 L 2.96875 -3.5 L 2.96875 -4.8125 L 4.59375 -6.328125 C 5.257812 -7.003906 5.59375 -7.550781 5.59375 -7.96875 C 5.59375 -8.320312 5.453125 -8.613281 5.171875 -8.84375 C 4.890625 -9.070312 4.519531 -9.1875 4.0625 -9.1875 C 3.625 -9.1875 3.257812 -9.0625 2.96875 -8.8125 C 2.6875 -8.570312 2.546875 -8.289062 2.546875 -7.96875 L 0.453125 -7.96875 C 0.453125 -8.238281 0.546875 -8.609375 0.734375 -9.078125 C 0.910156 -9.503906 1.171875 -9.890625 1.515625 -10.234375 C 1.828125 -10.535156 2.207031 -10.796875 2.65625 -11.015625 C 3.132812 -11.203125 3.601562 -11.296875 4.0625 -11.296875 C 4.53125 -11.296875 5 -11.203125 5.46875 -11.015625 C 5.925781 -10.804688 6.3125 -10.546875 6.625 -10.234375 C 6.957031 -9.898438 7.210938 -9.515625 7.390625 -9.078125 C 7.585938 -8.640625 7.6875 -8.269531 7.6875 -7.96875 Z M 7.6875 -7.96875 "/></g></g></g></g></g></svg>