<svg xmlns="http://www.w3.org/2000/svg" xmlns:xlink="http://www.w3.org/1999/xlink" width="192" zoomAndPan="magnify" viewBox="0 0 144 143.999998" height="192" preserveAspectRatio="xMidYMid meet" version="1.0"><defs><clipPath id="656b7c9a22"><path d="M 38.457031 36.695312 L 105.207031 36.695312 L 105.207031 71.945312 L 38.457031 71.945312 Z M 38.457031 36.695312 " clip-rule="nonzero"/></clipPath></defs><rect x="-14.4" width="172.8" fill="#ffffff" y="-14.4" height="172.799997" fill-opacity="1"/><rect x="-14.4" width="172.8" fill="#ffffff" y="-14.4" height="172.799997" fill-opacity="1"/><path fill="#040606" d="M 120.707031 138.757812 L 106.867188 124.914062 C 96.78125 131.359375 84.796875 135.097656 71.9375 135.097656 C 36.078125 135.097656 7.011719 106.027344 7.011719 70.167969 C 7.011719 34.308594 36.078125 5.238281 71.9375 5.238281 C 107.796875 5.238281 136.867188 34.308594 136.867188 70.167969 C 136.867188 82.460938 133.453125 93.957031 127.515625 103.753906 L 110.511719 86.75 C 112.703125 81.664062 113.917969 76.058594 113.917969 70.167969 C 113.917969 46.984375 95.121094 28.191406 71.9375 28.191406 C 48.753906 28.191406 29.960938 46.984375 29.960938 70.167969 C 29.960938 93.355469 48.753906 112.148438 71.9375 112.148438 C 78.410156 112.148438 84.542969 110.683594 90.019531 108.066406 L 79.605469 97.652344 L 95.882812 81.375 L 123.777344 109.269531 L 136.988281 122.476562 Z M -23.855469 7.273438 L -23.855469 136.726562 C -23.855469 153.914062 -9.917969 167.851562 7.273438 167.851562 L 136.726562 167.851562 C 153.914062 167.851562 167.851562 153.914062 167.851562 136.726562 L 167.851562 7.273438 C 167.851562 -9.917969 153.914062 -23.855469 136.726562 -23.855469 L 7.273438 -23.855469 C -9.917969 -23.855469 -23.855469 -9.917969 -23.855469 7.273438 " fill-opacity="1" fill-rule="nonzero"/><g clip-path="url(#656b7c9a22)"><path fill="#f7f5e3" d="M 72.933594 48.816406 C 72.933594 48.894531 72.992188 48.964844 73.070312 48.972656 C 75.226562 49.171875 77.109375 49.464844 78.839844 50.796875 C 79.1875 51.066406 79.78125 51.730469 80.632812 52.789062 C 82.601562 55.253906 83.753906 57.046875 86.414062 58.515625 C 90.863281 60.972656 95.453125 63.222656 100.179688 65.265625 C 101.582031 65.871094 102.539062 66.324219 103.046875 66.613281 C 104.71875 67.570312 105.886719 69.125 105.441406 71.148438 C 105.109375 72.667969 103.207031 71.707031 102.230469 71.265625 C 99.175781 69.882812 94.898438 67.707031 91.117188 65.644531 C 84.292969 61.921875 80.707031 59.976562 80.359375 59.808594 C 80.121094 59.691406 79.578125 59.394531 78.734375 58.921875 C 77.304688 58.117188 75.960938 57.464844 74.699219 56.964844 C 72.269531 55.992188 70.019531 56.578125 67.59375 57.824219 C 62.960938 60.203125 58.386719 62.773438 53.632812 65.269531 C 49.164062 67.617188 46.378906 69.015625 41.195312 71.507812 C 40.714844 71.742188 40.273438 71.894531 39.871094 71.960938 C 38.597656 72.1875 38.363281 70.960938 38.488281 70.050781 C 38.800781 67.8125 40.261719 66.851562 42.371094 65.9375 C 44.542969 64.996094 47.570312 63.683594 50.269531 62.367188 C 53.402344 60.835938 55.800781 59.625 57.460938 58.730469 C 59.011719 57.894531 60.289062 56.867188 61.292969 55.648438 C 62.125 54.640625 63.023438 53.511719 63.984375 52.265625 C 65.839844 49.855469 68.253906 49.191406 71.140625 48.984375 C 71.226562 48.980469 71.289062 48.910156 71.289062 48.828125 L 71.289062 46.148438 C 71.289062 46.03125 71.210938 45.925781 71.09375 45.898438 C 67.773438 45.085938 66.132812 41.195312 68.40625 38.398438 C 70.320312 36.042969 73.777344 36.167969 75.710938 38.585938 C 75.804688 38.703125 76.023438 39.058594 76.367188 39.648438 C 76.417969 39.738281 76.5 39.804688 76.59375 39.832031 C 76.605469 39.832031 76.746094 39.871094 77.015625 39.945312 C 78.066406 40.226562 77.714844 41.429688 76.726562 41.507812 C 76.207031 41.546875 75.742188 41.410156 75.332031 41.097656 C 75.21875 41.007812 75 40.652344 74.671875 40.023438 C 73.042969 36.886719 68.136719 38.683594 69.121094 42.015625 C 69.488281 43.261719 70.253906 44.007812 71.421875 44.25 C 71.976562 44.363281 72.320312 44.492188 72.457031 44.636719 C 72.773438 44.96875 72.933594 45.296875 72.941406 45.621094 C 72.960938 46.4375 72.960938 47.503906 72.933594 48.816406 Z M 72.933594 48.816406 " fill-opacity="1" fill-rule="nonzero"/></g></svg>