<svg xmlns="http://www.w3.org/2000/svg" xmlns:xlink="http://www.w3.org/1999/xlink" width="512" zoomAndPan="magnify" viewBox="0 0 384 383.999986" height="512" preserveAspectRatio="xMidYMid meet" version="1.0"><defs><clipPath id="d782c732c4"><path d="M 104.425781 110.019531 L 279.574219 110.019531 L 279.574219 202.269531 L 104.425781 202.269531 Z M 104.425781 110.019531 " clip-rule="nonzero"/></clipPath></defs><rect x="-38.4" width="460.8" fill="#ffffff" y="-38.399999" height="460.799983" fill-opacity="1"/><rect x="-38.4" width="460.8" fill="#ffffff" y="-38.399999" height="460.799983" fill-opacity="1"/><path fill="#040606" d="M 326.414062 376.792969 L 288.21875 338.585938 C 260.382812 356.382812 227.3125 366.695312 191.832031 366.695312 C 92.875 366.695312 12.65625 286.476562 12.65625 187.519531 C 12.65625 88.5625 92.875 8.339844 191.832031 8.339844 C 290.785156 8.339844 371.007812 88.5625 371.007812 187.519531 C 371.007812 221.441406 361.582031 253.164062 345.203125 280.203125 L 298.277344 233.277344 C 304.324219 219.238281 307.671875 203.769531 307.671875 187.519531 C 307.671875 123.542969 255.808594 71.675781 191.832031 71.675781 C 127.855469 71.675781 75.988281 123.542969 75.988281 187.519531 C 75.988281 251.5 127.855469 303.363281 191.832031 303.363281 C 209.695312 303.363281 226.617188 299.320312 241.726562 292.101562 L 212.992188 263.359375 L 257.910156 218.441406 L 289.429688 249.957031 L 334.886719 295.414062 L 371.34375 331.863281 Z M -72.519531 13.949219 L -72.519531 371.183594 C -72.519531 418.621094 -34.058594 457.082031 13.378906 457.082031 L 370.613281 457.082031 C 418.054688 457.082031 456.511719 418.621094 456.511719 371.183594 L 456.511719 13.949219 C 456.511719 -33.492188 418.054688 -71.949219 370.613281 -71.949219 L 13.378906 -71.949219 C -34.058594 -71.949219 -72.519531 -33.492188 -72.519531 13.949219 " fill-opacity="1" fill-rule="nonzero"/><g clip-path="url(#d782c732c4)"><path fill="#f7f5e3" d="M 194.445312 141.667969 C 194.441406 141.871094 194.601562 142.050781 194.804688 142.070312 C 200.433594 142.589844 205.347656 143.359375 209.863281 146.839844 C 210.769531 147.539062 212.328125 149.277344 214.542969 152.042969 C 219.683594 158.472656 222.695312 163.152344 229.644531 166.992188 C 241.265625 173.40625 253.242188 179.28125 265.582031 184.617188 C 269.25 186.199219 271.746094 187.378906 273.078125 188.136719 C 277.4375 190.636719 280.488281 194.699219 279.328125 199.976562 C 278.457031 203.945312 273.496094 201.4375 270.941406 200.28125 C 262.96875 196.667969 251.796875 190.988281 241.925781 185.605469 C 224.101562 175.890625 214.742188 170.808594 213.839844 170.367188 C 213.210938 170.0625 211.796875 169.285156 209.59375 168.050781 C 205.863281 165.953125 202.34375 164.246094 199.054688 162.9375 C 192.714844 160.40625 186.832031 161.933594 180.496094 165.1875 C 168.40625 171.398438 156.457031 178.109375 144.050781 184.625 C 132.382812 190.757812 125.105469 194.410156 111.574219 200.917969 C 110.316406 201.527344 109.164062 201.921875 108.117188 202.101562 C 104.792969 202.6875 104.175781 199.492188 104.503906 197.117188 C 105.316406 191.269531 109.132812 188.761719 114.636719 186.375 C 120.316406 183.90625 128.214844 180.488281 135.269531 177.046875 C 143.449219 173.054688 149.707031 169.886719 154.046875 167.554688 C 158.089844 165.375 161.425781 162.6875 164.054688 159.503906 C 166.226562 156.871094 168.566406 153.929688 171.074219 150.667969 C 175.917969 144.375 182.230469 142.644531 189.765625 142.105469 C 189.984375 142.09375 190.152344 141.914062 190.152344 141.695312 L 190.152344 134.703125 C 190.152344 134.390625 189.945312 134.121094 189.644531 134.050781 C 180.976562 131.925781 176.6875 121.761719 182.625 114.460938 C 187.621094 108.308594 196.648438 108.636719 201.699219 114.949219 C 201.945312 115.253906 202.511719 116.1875 203.40625 117.730469 C 203.539062 117.960938 203.753906 118.132812 204.003906 118.203125 C 204.035156 118.210938 204.398438 118.3125 205.105469 118.503906 C 207.84375 119.238281 206.925781 122.382812 204.34375 122.582031 C 202.988281 122.683594 201.777344 122.328125 200.710938 121.511719 C 200.410156 121.277344 199.835938 120.347656 198.984375 118.710938 C 194.726562 110.519531 181.925781 115.210938 184.484375 123.914062 C 185.449219 127.167969 187.449219 129.105469 190.5 129.738281 C 191.945312 130.039062 192.84375 130.371094 193.199219 130.75 C 194.027344 131.621094 194.445312 132.480469 194.464844 133.324219 C 194.515625 135.453125 194.511719 138.238281 194.445312 141.667969 Z M 194.445312 141.667969 " fill-opacity="1" fill-rule="nonzero"/></g></svg>